# xmcd
#
# Track frame offsets:
# 150
# 11967
# 24957
# 39075
# 51775
# 66162
# 79250
# 91752
# 106167
# 122672
# 134997
# 152662
# 166037
# 175940
# 188962
#
# Disc length: 2677 seconds
#
#
# Revision: 0
# Processed by: cddbd v1.4PL0 Copyright (c) Steve Scherf et al.
# Submitted via: FreeRIP 2.00 
#
DISCID=bb0a730f
DTITLE=Merle Haggard - New Light Through Old Windows
DYEAR=2000
DGENRE=Comedy
TTITLE0=Carolyn
TTITLE1=Sing Me Back Home
TTITLE2=Always Wanting You
TTITLE3=I'm Always On A Mountain When I Fall
TTITLE4=I'm A Lonesome Fugitive
TTITLE5=Misery And Gin
TTITLE6=If We Make It Through December
TTITLE7=Branded Man
TTITLE8=Hungry Eyes
TTITLE9=Okie From Muskogee
TTITLE10=I Think I'll Just Stay Here And Drink
TTITLE11=The Way I Am
TTITLE12=Mama Tried
TTITLE13=Fightin' Side Of Me
TTITLE14=Things Aren't Funny Anymore
EXTD=
EXTT0=
EXTT1=
EXTT2=
EXTT3=
EXTT4=
EXTT5=
EXTT6=
EXTT7=
EXTT8=
EXTT9=
EXTT10=
EXTT11=
EXTT12=
EXTT13=
EXTT14=
PLAYORDER=
